<svg xmlns="http://www.w3.org/2000/svg" viewBox="0 0 512 512" fill="none">
  <defs>
    <linearGradient id="bg" x1="256" y1="0" x2="256" y2="512" gradientUnits="userSpaceOnUse">
      <stop stop-color="#0E1218"/>
      <stop offset="1" stop-color="#1E2229"/>
    </linearGradient>
    <linearGradient id="blue" x1="256" y1="80" x2="256" y2="432" gradientUnits="userSpaceOnUse">
      <stop stop-color="#2BB0FF"/>
      <stop offset="1" stop-color="#0E6CDE"/>
    </linearGradient>
    <filter id="shadow" x="84" y="66" width="356" height="392" filterUnits="userSpaceOnUse" color-interpolation-filters="sRGB">
      <feOffset dy="10"/>
      <feGaussianBlur stdDeviation="10"/>
      <feColorMatrix type="matrix" values="0 0 0 0 0 0 0 0 0 0 0 0 0 0 0 0 0 0 0.35 0"/>
      <feBlend in2="SourceGraphic" result="shape"/>
    </filter>
  </defs>
  <rect width="512" height="512" rx="54" fill="url(#bg)"/>
  <g filter="url(#shadow)">
    <g transform="translate(14 0)" fill="#0A4A98" opacity="0.9">
      <rect x="108" y="84" width="100" height="190" rx="36"/>
      <rect x="86" y="194" width="144" height="244" rx="52"/>
      <rect x="130" y="178" width="246" height="112" rx="54"/>
      <rect x="296" y="84" width="116" height="354" rx="42"/>
    </g>
    <g fill="url(#blue)">
      <rect x="108" y="84" width="100" height="190" rx="36"/>
      <rect x="86" y="194" width="144" height="244" rx="52"/>
      <rect x="130" y="178" width="246" height="112" rx="54"/>
      <rect x="296" y="84" width="116" height="354" rx="42"/>
    </g>
  </g>
  <path d="M168 260c24-38 58-65 122-82" stroke="#11141B" stroke-width="12" stroke-linecap="round"/>
  <rect x="118" y="140" width="24" height="76" rx="12" fill="#11141B"/>
  <rect x="92" y="166" width="76" height="24" rx="12" fill="#11141B"/>
  <rect x="184" y="222" width="110" height="18" rx="9" fill="#11141B"/>
  <rect x="184" y="258" width="110" height="18" rx="9" fill="#11141B"/>
  <path d="M348 286l62-82" stroke="#11141B" stroke-width="18" stroke-linecap="round"/>
  <circle cx="340" cy="230" r="28" stroke="#11141B" stroke-width="14"/>
  <circle cx="412" cy="302" r="28" stroke="#11141B" stroke-width="14"/>
  <path d="M236 360l46 46" stroke="#11141B" stroke-width="18" stroke-linecap="round"/>
  <path d="M282 360l-46 46" stroke="#11141B" stroke-width="18" stroke-linecap="round"/>
</svg>
